<?xml version="1.0" encoding="UTF-8"?>
<!DOCTYPE svg PUBLIC "-//W3C//DTD SVG 1.1//EN" "http://www.w3.org/Graphics/SVG/1.1/DTD/svg11.dtd">
<!-- Creator: CorelDRAW -->
<svg xmlns="http://www.w3.org/2000/svg" xml:space="preserve" width="8in" height="8in" style="shape-rendering:geometricPrecision; text-rendering:geometricPrecision; image-rendering:optimizeQuality; fill-rule:evenodd; clip-rule:evenodd"
viewBox="0 0 8000 8000"
 xmlns:xlink="http://www.w3.org/1999/xlink">
 <defs>
  <style type="text/css">
   <![CDATA[
    .str0 {stroke:black;stroke-linecap:round;stroke-linejoin:round}
    .fil0 {fill:black}
   ]]>
  </style>
 </defs>
 <g id="Layer_x0020_1">
  <metadata id="CorelCorpID_0Corel-Layer"/>
  <path class="fil0 str0" d="M457 2704c-14,43 -9,85 33,121 107,90 286,-42 454,-86 63,-17 110,-37 85,51 -11,36 -13,73 -23,109 -6,26 -42,140 -38,166 9,66 26,7 25,180 -2,178 49,184 29,308 -22,133 38,289 47,426 6,100 53,136 76,278 13,84 33,113 71,186 86,166 204,312 305,469 144,224 118,137 214,270 92,126 154,201 315,226 59,9 38,40 45,83 11,70 -8,124 2,211 4,40 -20,62 16,86 41,27 64,253 65,301 3,171 7,141 37,311 30,171 -10,165 -44,272 -28,92 -50,120 -144,143 -129,32 -211,-63 -339,117 -64,90 -25,127 -25,160 0,53 -39,185 83,178 35,-2 68,-11 102,-1 49,14 76,-17 133,0 104,31 103,14 199,-31 65,-31 68,-1 144,9 69,9 98,-57 125,-110 118,-228 262,-454 282,-717 14,-191 13,-156 44,-334 14,-81 7,-161 14,-242 9,-97 19,-194 19,-291 1,-77 39,11 286,0 198,-8 239,-12 432,0 214,13 555,-143 800,-114 104,12 132,6 228,10 88,4 97,34 149,25 58,-10 27,34 56,148 23,94 47,150 101,228 61,89 95,176 186,294 53,68 201,216 266,264 71,52 129,48 154,138 18,65 -12,92 -60,134 -70,62 -173,125 -270,111 -74,-11 -461,-23 -533,-3 -125,37 -200,230 -158,286 38,51 91,4 157,54 72,54 159,3 235,37 85,38 84,61 218,24 70,-19 139,-40 210,-55 257,-50 298,-93 493,-252 42,-33 50,-45 98,-78 92,-64 71,-112 150,99 34,91 39,48 88,29 47,-17 39,187 101,250 42,43 56,-98 117,-53 30,22 127,128 168,111 92,-39 72,-58 167,-8 31,17 94,19 129,21 45,4 207,11 243,-23 56,-55 -68,-199 -106,-237 -70,-70 -106,-117 -140,-217 -45,-131 -50,-278 -25,-413 8,-43 20,-227 48,-232 25,-4 55,25 77,32 73,23 147,40 219,65 136,48 168,20 338,141 30,22 113,80 136,111 76,103 61,241 64,361 3,155 -48,74 -138,147 -76,61 -57,129 -72,213 -15,82 77,51 128,88 85,62 77,56 187,15 81,-29 110,23 167,-52 71,-92 124,-112 82,-246 -30,-96 -59,-298 -51,-394 7,-87 10,-118 12,-208 2,-116 54,-362 -5,-439 -49,-64 -156,-81 -254,-133 -235,-123 -408,-331 -500,-578 -139,-375 -175,-771 -438,-1094 -60,-74 -260,-289 -350,-346 -134,-85 -87,-50 -238,-171 -161,-129 -328,-265 -526,-331 -80,-27 -110,-33 -190,-65 -171,-66 -692,-126 -891,-146 -347,-34 -698,-64 -1030,-179 -180,-63 -314,-96 -499,-177 -44,-19 -240,-106 -283,-136 -136,-96 -310,-235 -381,-393 -24,-55 -43,-41 -103,-133 -68,-105 -81,-141 -161,-251 -129,-177 -160,-307 -341,-482 -175,-169 -106,-88 -189,-312 -13,-38 -26,-76 -38,-115 -18,-51 -8,-84 -60,-96 -30,-8 -64,24 -77,109 -10,62 7,125 -32,88 -61,-58 -179,-426 -265,-349 -48,43 -5,119 8,168 20,78 47,119 23,202 -37,133 46,125 -92,251 -97,89 -331,216 -380,301 -56,97 -13,145 -78,232 -82,108 -306,261 -421,335 -34,21 -131,90 -147,128 -35,87 80,168 132,226 89,99 152,144 287,149 8,1 16,-1 25,-2 22,-4 19,0 6,39zm5459 3711c7,-29 14,-58 21,-87 13,-52 23,-72 -31,-70 -23,1 -41,-16 -15,-122 15,-64 105,-261 91,-307 -5,-20 -73,-88 -85,-85 -18,4 1,45 -40,132 -85,181 -168,298 -45,468 27,37 54,70 76,110 17,32 26,-35 28,-39z"/>
 </g>
</svg>
