<?xml version="1.0" standalone="no"?>
<!DOCTYPE svg PUBLIC "-//W3C//DTD SVG 20010904//EN"
 "http://www.w3.org/TR/2001/REC-SVG-20010904/DTD/svg10.dtd">
<svg version="1.0" xmlns="http://www.w3.org/2000/svg"
 width="1280.000000pt" height="665.000000pt" viewBox="0 0 1280.000000 665.000000"
 preserveAspectRatio="xMidYMid meet">
<g transform="translate(0.000000,665.000000) scale(0.100000,-0.100000)"
fill="#000000" stroke="none">
<path d="M1605 6639 c-619 -75 -1152 -446 -1425 -988 -56 -113 -120 -293 -144
-411 -30 -139 -42 -320 -27 -397 78 -399 395 -927 836 -1391 l96 -101 -43 -71
c-61 -102 -172 -247 -353 -460 -271 -320 -383 -480 -461 -659 -93 -215 -106
-429 -43 -716 157 -713 770 -1267 1514 -1369 61 -8 157 -18 215 -21 58 -4 155
-15 215 -26 536 -97 1102 54 1524 406 362 302 592 752 618 1208 l6 117 2267 0
2267 0 6 -91 c52 -721 613 -1369 1345 -1553 142 -36 199 -45 398 -61 98 -8
215 -21 259 -30 119 -22 361 -30 490 -16 869 93 1534 741 1626 1583 23 206 -7
370 -102 568 -85 177 -169 292 -508 695 -144 171 -237 296 -294 395 l-25 45
115 125 c386 419 648 828 767 1197 54 170 62 230 48 373 -43 431 -225 801
-540 1101 -136 130 -261 216 -437 304 -248 123 -443 175 -731 195 -87 6 -208
20 -269 31 -573 103 -1172 -74 -1598 -471 -318 -297 -520 -722 -544 -1142 l-6
-118 -2267 0 -2267 0 -6 83 c-52 706 -565 1329 -1269 1541 -150 45 -258 63
-473 81 -99 8 -216 22 -260 30 -99 19 -412 27 -520 14z"/>
</g>
</svg>
