<?xml version="1.0" encoding="iso-8859-1"?>
<!-- Generator: Adobe Illustrator 18.0.0, SVG Export Plug-In . SVG Version: 6.00 Build 0)  -->
<!DOCTYPE svg PUBLIC "-//W3C//DTD SVG 1.1//EN" "http://www.w3.org/Graphics/SVG/1.1/DTD/svg11.dtd">
<svg xmlns="http://www.w3.org/2000/svg" xmlns:xlink="http://www.w3.org/1999/xlink" version="1.1" id="Capa_1" x="0px" y="0px" viewBox="0 0 256.969 256.969" style="enable-background:new 0 0 256.969 256.969;" xml:space="preserve" width="512px" height="512px">
<g>
	<path d="M70.073,140.031c9.81,0,18.935-2.835,26.384-8.197c11.077-7.969,20.733-21.415,26.491-36.892   c6.035-16.22,7.208-32.7,3.304-46.404c-0.01-0.036-0.021-0.073-0.032-0.109c-6.072-20.33-27.201-32.96-55.143-32.96   c-10.561,0-21.611,1.905-31.954,5.509C20.962,27.301,7.569,40.226,2.379,56.438C-2.804,72.624,0.57,90.871,11.635,106.5   c0.025,0.036,0.051,0.072,0.077,0.107c15.052,20.615,37.414,33.422,58.357,33.424C70.071,140.031,70.072,140.031,70.073,140.031z    M87.821,63.653c6.443-0.231,11.782,4.726,12.036,11.118c0.253,6.383-4.733,11.783-11.116,12.036   c-0.155,0.006-0.309,0.009-0.462,0.009c-6.244,0-11.328-4.887-11.576-11.126C76.457,69.3,81.445,63.906,87.821,63.653z" fill="#2b2b2b"/>
	<path d="M234.722,86.816c0.153,0,0.307-0.003,0.461-0.009c3.092-0.123,5.951-1.442,8.051-3.715c2.101-2.274,3.19-5.229,3.067-8.322   c-0.254-6.393-5.596-11.371-12.038-11.118c-3.094,0.123-5.954,1.443-8.054,3.719c-2.098,2.273-3.186,5.227-3.063,8.318   C223.395,81.929,228.479,86.816,234.722,86.816z" fill="#2b2b2b"/>
	<path d="M247.969,209.053c-56.969,0-72.256-31.639-76.204-45.321c16.03-6.093,26.829-25.421,26.829-39.213   c0-17.58-16.639-31.882-37.092-31.882c-20.453,0-37.092,14.302-37.092,31.882c0,13.792,10.799,33.12,26.829,39.213   c-3.947,13.683-19.234,45.321-76.204,45.321c-4.971,0-9,4.029-9,9s4.029,9,9,9c45.368,0,68.892-18.084,80.636-33.254   c2.273-2.936,4.195-5.877,5.831-8.737c1.635,2.86,3.557,5.801,5.83,8.737c21.278,27.485,55.595,33.254,80.636,33.254   c4.971,0,9-4.029,9-9S252.939,209.053,247.969,209.053z" fill="#2b2b2b"/>
	<path d="M169.031,223.5h-15.059c-4.971,0-9,4.029-9,9c0,4.971,4.029,9,9,9h15.059c4.971,0,9-4.029,9-9   C178.031,227.529,174.002,223.5,169.031,223.5z" fill="#2b2b2b"/>
</g>
<g>
</g>
<g>
</g>
<g>
</g>
<g>
</g>
<g>
</g>
<g>
</g>
<g>
</g>
<g>
</g>
<g>
</g>
<g>
</g>
<g>
</g>
<g>
</g>
<g>
</g>
<g>
</g>
<g>
</g>
</svg>
