<?xml version="1.0" encoding="utf-8"?>
<!-- Generator: Adobe Illustrator 16.0.0, SVG Export Plug-In . SVG Version: 6.00 Build 0)  -->
<!DOCTYPE svg PUBLIC "-//W3C//DTD SVG 1.1//EN" "http://www.w3.org/Graphics/SVG/1.1/DTD/svg11.dtd" [
	<!ENTITY ns_flows "http://ns.adobe.com/Flows/1.0/">
	<!ENTITY ns_extend "http://ns.adobe.com/Extensibility/1.0/">
	<!ENTITY ns_ai "http://ns.adobe.com/AdobeIllustrator/10.0/">
	<!ENTITY ns_graphs "http://ns.adobe.com/Graphs/1.0/">
]>
<svg version="1.1" id="Layer_1" xmlns:x="&ns_extend;" xmlns:i="&ns_ai;" xmlns:graph="&ns_graphs;"
	 xmlns="http://www.w3.org/2000/svg" xmlns:xlink="http://www.w3.org/1999/xlink" xmlns:a="http://ns.adobe.com/AdobeSVGViewerExtensions/3.0/"
	 x="0px" y="0px" width="864px" height="864px" viewBox="0 0 864 864" enable-background="new 0 0 864 864" xml:space="preserve">
<g>
	<path fill-rule="evenodd" clip-rule="evenodd" d="M814.932,595.445c-2.015-6.039-2.806-11.334,0.945-16.746
		c2.785-4.019,2.202-7.537-0.957-11.295c-4.547-5.409-8.618-11.217-13.386-17.506c3.507-2.833,6.882-5.56,11.798-9.532
		c-7.75-6.904-15.133-13.479-22.516-20.054c0.375-0.451,0.748-0.902,1.123-1.354c2.904,0.498,5.81,0.996,8.715,1.493
		c0.424-0.533,0.847-1.067,1.27-1.601c-7.525-7.404-15.052-14.809-22.576-22.213c0.415-0.697,0.83-1.395,1.246-2.092
		c6.084,1.897,12.166,3.793,18.25,5.688c0.561-0.675,1.123-1.35,1.686-2.024c-8.887-8.866-17.773-17.731-27.656-27.593
		c4.914,0,8.109,0,11.305,0c0.387-0.529,0.773-1.059,1.159-1.588c-5.476-4.376-10.95-8.751-17.911-14.316
		c3.903,0.192,6.035,0.297,8.953,0.439c-0.573-1.794-0.67-3.517-1.546-4.616c-7.755-9.73-16.291-18.91-23.309-29.136
		c-6.19-9.021-12.196-18.713-15.431-29.006c-1.818-5.783,1.634-13.536,3.614-20.129c3.974-13.229,8.566-26.271,13.104-39.998
		c-1.02-0.248-3.261-0.794-5.896-1.436c1.612-5.945,4.82-11.812-2.967-16.288c-1.398-0.804-0.112-7.366,0.89-11.007
		c1.554-5.644,2.503-10.309-4.46-13.211c-1.508-0.628-2.6-4.441-2.361-6.62c0.528-4.819,2.025-9.531,3.531-16.036
		c-4.273,2.081-6.426,3.128-9.445,4.6c0-5.902,0-11.092,0-17.263c-4.004,0.431-7.201,0.774-11.244,1.209
		c-1.566-6.281-3.169-12.706-4.829-19.362c-3.682,0-6.989,0-10.884,0c-1.42-3.817-2.955-7.936-4.789-12.862
		c-7.186,5.355-12.775,2.97-18.56-1.688c-1.898-1.529-7.185-2.061-8.187-0.827c-2.133,2.623-3.93,6.991-3.31,10.14
		c3.923,19.91,8.276,39.748,13.012,59.482c4.812,20.057,3.382,38.762-6.878,57.306c-4.942,8.934-10.907,11.571-20.068,11.737
		c-26.889,0.486-53.77,1.989-80.652,1.958c-42.645-0.051-85.297-0.625-127.925-1.797c-17.374-0.478-29.399-12.474-42.329-22.629
		c-22.349-17.553-37.08-41.72-56.164-62.044c-11.155-11.879-22.576-23.82-35.443-33.692c-12.562-9.639-27.369-16.294-40.733-24.964
		c-16.445-10.67-28.084-25.84-37.785-42.68c-3.366-5.845-7.215-11.509-11.568-16.641c-1.831-2.157-5.54-2.721-8.396-4.009
		c-1.182,2.643-3.404,5.299-3.365,7.924c0.176,11.842,0.764,23.691,1.629,35.506c1.468,20.069-7.185,35.337-23.271,45.931
		c-9.188,6.051-20.004,9.653-30.159,14.198c-3.6,1.611-7.409,2.747-11.121,4.105c-5.483,2.008-6.889,5.926-4.111,10.746
		c11.077,19.206,3.568,34.399-14.287,46.888c-14.643,10.241-28.898,20.694-39.972,34.898c-6.401,8.213-4.182,20.172,5.438,24.224
		c10.974,4.623,15.853,12.006,18.557,23.675c5.934,25.598,22.756,44.928,41.269,62.588c2.991,2.854,8.348,4.964,12.388,4.64
		c9.518-0.763,16.274,2.473,20.808,11.309c0.843-0.359,1.686-0.719,2.528-1.079c0-4.719,0-9.438,0-16.124
		c5.098,4.735,9.019,8.378,12.938,12.021c0.653-0.296,1.308-0.591,1.961-0.887c-1.036-5.154-2.071-10.308-3.493-17.384
		c5.823,5.489,10.491,9.891,17.113,16.133c-0.622-6.551-1.013-10.673-1.478-15.564c2.88,1.042,5.125,1.854,9.911,3.587
		c-3.975-7.413-7.015-13.082-10.301-19.213c1.625-0.793,3.198-1.561,5.264-2.567c-1.674-2.823-3.201-5.399-5.146-8.677
		c3.29,0.478,5.874,0.852,10.537,1.528c-3.374-6.482-5.981-11.529-8.624-16.559c-3.657-6.96-2.073-12.689,4.984-16.123
		c6.611-3.218,12.887-6.076,16.416-13.58c1.987-4.224,5.799-3.136,9.256,1.003c15.117,18.096,23.23,38.67,25.229,62.164
		c1.646,19.34,3.81,38.716,7.342,57.78c1.691,9.129,5.812,18.452,11.111,26.11c7.024,10.149,10.092,20.522,9.179,32.543
		c-1.183,15.574-0.744,30.984,3.763,46.178c3.521,11.871-1.69,22.407-5.893,33.212c-4.449,11.44-8.795,23.128-11.195,35.106
		c-2.703,13.495,4.672,20.688,18.352,20.927c14.396,0.253,28.869,2.069,43.144,1c8.807-0.66,17.542-4.896,25.871-8.528
		c7.438-3.243,14.277-7.862,22.534-12.525c-3.874-2.311-6.984-4.168-11.673-6.965c8.385-2.162,15.103-3.894,24.187-6.236
		c-5.99-3.613-9.71-5.856-14.192-8.561c4.938-2.729,9.212-5.09,14.793-8.173c-4.022-2.984-7.19-5.333-10.343-7.671
		c8.622-12.128,8.622-12.128,5.2-16.796c3.48-2.662,6.981-5.339,11.252-8.604c-3.757-4.367-7.335-8.525-11.037-12.828
		c6.4-8.819,12.998-14.896,25.128-14.243c20.748,1.118,41.611,1.034,62.39,0.343c16.881-0.562,33.697-2.896,50.566-4.13
		c4.738-0.347,9.564,0.327,14.338,0.688c4.371,0.331,8.727,0.871,13.949,1.408c-0.849-3.933-1.43-6.628-2.457-11.383
		c6.604,0,12.761,0,18.886,0c0.724-8.486,0.724-8.486,26.872-3.021c-1.227-3.826-2.262-7.051-3.48-10.854
		c7.627-2.256,14.18-1.64,19.456,5.086c11.995,15.288,26.564,27.862,43.317,37.429c15.366,8.774,31.414,16.431,47.505,23.832
		c11.169,5.138,12.321,11.266,8.233,24.461c-3.068,9.9-6.61,19.664-9.332,29.655c-2.106,7.729,0.935,14.613,8.976,15.288
		c18.192,1.529,36.722,3.462,54.717,1.529c14.062-1.51,19.872-15.131,22.272-27.972c3.575-19.118,6.244-38.447,8.229-57.797
		C818.891,608.793,817.035,601.75,814.932,595.445z M645.444,520.667c-43.32-28.871-76.789-86.733-38.772-99.901
		c0,0,8.441-2.432,14.182-0.02l0.472,0c-0.14-0.052-0.279-0.108-0.418-0.158l24.789,0.124l25.567-0.035
		c1.426-0.41,7.89-2.053,13.231-0.018l0.301,0C722.984,432.843,693.905,487.87,645.444,520.667z"/>
	<path fill-rule="evenodd" clip-rule="evenodd" d="M645.463,437.971c0,0,12.688-12.742,25.1-17.134l-24.866-0.125l-24.371,0.034
		C633.301,425.199,645.463,437.971,645.463,437.971z"/>
</g>
</svg>
