<?xml version="1.0" encoding="utf-8"?>
<!-- Generator: Adobe Illustrator 16.0.0, SVG Export Plug-In . SVG Version: 6.00 Build 0)  -->
<!DOCTYPE svg PUBLIC "-//W3C//DTD SVG 1.1//EN" "http://www.w3.org/Graphics/SVG/1.1/DTD/svg11.dtd">
<svg version="1.1" id="Layer_4" xmlns="http://www.w3.org/2000/svg" xmlns:xlink="http://www.w3.org/1999/xlink" x="0px" y="0px"
	 width="864px" height="864px" viewBox="0 0 864 864" enable-background="new 0 0 864 864" xml:space="preserve">
<path fill-rule="evenodd" clip-rule="evenodd" d="M313.99,407.456c15.605-13.219,30.744-27.047,46.93-39.516
	c22.537-17.359,47.25-22.906,71.95-5.137c51.416,36.996,85.016,86.469,93.596,149.613c5.969,43.926-22.104,67.547-63.518,52.91
	c-30.805-10.891-58.708-9.73-89.311-1.66c-18.643,4.914-40.049,5.426-59.018,1.75c-40.332-7.816-55.23-34.031-40.951-72.344
	c11.074-29.715,12.72-55.193,40.941-86.262L313.99,407.456z"/>
<path fill-rule="evenodd" clip-rule="evenodd" d="M533.867,222.851c-5.543,31.73-10.791,61.137-33.092,83.984
	c-21.926,22.465-54.314,18.879-71.799-7.004c-27.084-40.098-9.848-121.238,31.305-147.359c20.932-13.289,44.26-9.527,55.379,12.699
	C527.264,182.951,535.429,208.303,533.867,222.851z"/>
<path fill-rule="evenodd" clip-rule="evenodd" d="M406.845,254.499c-1.311,7.414-2.215,21.602-6.463,34.703
	c-8.84,27.25-30.057,35.684-54.953,21.879c-9.557-5.297-19.105-12.914-25.145-21.844c-25.863-38.254-32.732-79.941-14.312-123.105
	c14.791-34.664,46.715-38.367,70.82-9.281C398.595,183.159,405.925,214.562,406.845,254.499z"/>
<path fill-rule="evenodd" clip-rule="evenodd" d="M603.381,350.179c-1.09,34.016-7.486,59.457-26.539,80.25
	c-25.588,27.926-69.35,19.508-83.166-15.836c-14.791-37.832,2.5-93.605,36.066-116.34c25.363-17.18,51.68-10.367,64.121,18.023
	C599.357,328.815,601.402,342.862,603.381,350.179z"/>
<path fill-rule="evenodd" clip-rule="evenodd" d="M301.609,400.812c-20.764,16.266-33.268,17.258-56.338,4.473
	c-36.186-20.059-58.414-73.301-47.582-113.969c10.178-38.211,43.41-48.133,73.074-21.812
	c34.771,30.852,53.652,88.096,30.215,131.977C300.99,401.456,301.609,400.812,301.609,400.812z"/>
</svg>
